<svg width="411" height="357" viewBox="0 0 411 357" fill="none" xmlns="http://www.w3.org/2000/svg">
<g clip-path="url(#clip0_3_37)">
<path d="M68.5935 84.5743H70.547V31.0054C70.547 22.7823 73.8104 14.8959 79.6194 9.08129C85.4283 3.26664 93.307 5.42838e-06 101.522 0H214.908C218.976 0 223.004 0.801978 226.762 2.36015C230.52 3.91832 233.934 6.20216 236.811 9.08128C239.687 11.9604 241.969 15.3784 243.525 19.1402C245.082 22.9019 245.883 26.9337 245.883 31.0054V324.894C245.883 333.117 242.62 341.003 236.811 346.818C231.002 352.632 223.123 355.899 214.908 355.899H101.522C93.3071 355.899 85.4286 352.632 79.6197 346.818C73.8109 341.003 70.5475 333.117 70.5475 324.894V122.706H68.594L68.5935 84.5743Z" fill="#E6E6E6"/>
<path d="M100.272 8.06353H115.072C114.391 9.73396 114.131 11.5463 114.315 13.3409C114.499 15.1355 115.121 16.8573 116.127 18.3546C117.132 19.8519 118.49 21.0786 120.08 21.9268C121.671 22.7751 123.446 23.2187 125.248 23.2186H190.205C192.008 23.2185 193.782 22.7748 195.373 21.9265C196.963 21.0782 198.321 19.8514 199.326 18.3542C200.331 16.857 200.953 15.1352 201.137 13.3407C201.321 11.5462 201.061 9.73388 200.381 8.06353H214.204C220.339 8.06353 226.223 10.503 230.561 14.8453C234.899 19.1877 237.336 25.0771 237.336 31.2181V324.679C237.336 330.82 234.899 336.71 230.561 341.052C226.223 345.394 220.339 347.834 214.204 347.834H100.272C94.1373 347.834 88.2536 345.395 83.9155 341.052C79.5774 336.71 77.1403 330.82 77.1403 324.679V31.2176C77.1404 25.0767 79.5776 19.1874 83.9157 14.8452C88.2537 10.503 94.1374 8.06353 100.272 8.06353Z" fill="white"/>
<path d="M191.701 76.5138C192.318 76.5193 192.93 76.3946 193.496 76.148C194.062 75.9013 194.57 75.5381 194.986 75.082C195.481 74.5095 195.851 73.8409 196.075 73.118C196.299 72.3952 196.371 71.6339 196.287 70.8819C196.169 69.4496 195.569 68.0997 194.586 67.0528C194.113 66.5416 193.541 66.1324 192.905 65.8503C192.269 65.5682 191.582 65.4191 190.886 65.4123C190.239 65.4094 189.599 65.5429 189.007 65.8041C188.415 66.0652 187.885 66.4482 187.451 66.9281C186.958 67.4854 186.586 68.1389 186.358 68.8474C186.13 69.5559 186.052 70.3039 186.127 71.0443C186.219 72.5638 186.874 73.9944 187.964 75.0563C188.978 76.0015 190.315 76.523 191.701 76.5138ZM190.886 67.2625C192.695 67.2625 194.259 68.9236 194.445 71.0442C194.507 71.5405 194.466 72.0443 194.324 72.524C194.183 73.0037 193.944 73.4491 193.623 73.8324C193.38 74.0999 193.083 74.3124 192.752 74.4557C192.42 74.599 192.062 74.6699 191.701 74.6636C190.009 74.6636 188.199 73.4942 187.969 70.8817C187.915 70.397 187.963 69.9065 188.108 69.4411C188.254 68.9758 188.494 68.5456 188.814 68.1776C189.076 67.8881 189.396 67.6569 189.753 67.4992C190.11 67.3416 190.496 67.2609 190.886 67.2625Z" fill="#3F3D56"/>
<path d="M191.641 82.0646C193.071 82.0879 194.489 81.8066 195.802 81.2393C197.115 80.672 198.292 79.8318 199.256 78.7743C200.22 77.7168 200.948 76.4663 201.392 75.1056C201.836 73.745 201.986 72.3054 201.832 70.8823C201.529 67.8953 200.142 65.1234 197.933 63.0921C195.724 61.0607 192.848 59.9112 189.849 59.8615C186.521 59.8615 183.783 60.9316 181.931 62.9563C180.175 64.8761 179.352 67.5786 179.615 70.5661C179.864 73.3961 181.064 74.8701 182.026 75.6082C182.451 75.955 182.942 76.2118 183.469 76.363C183.996 76.5142 184.549 76.5568 185.093 76.488C186.614 76.218 188.297 74.8346 188.032 71.8244L187.542 66.2591C187.52 66.0156 187.402 65.791 187.214 65.6343C187.026 65.4777 186.784 65.4019 186.541 65.4233C186.297 65.4448 186.073 65.5618 185.915 65.7489C185.758 65.9359 185.681 66.1778 185.701 66.4215L186.191 71.9867C186.322 73.4832 185.791 74.485 184.77 74.6662C184.182 74.7119 183.6 74.5225 183.151 74.1395C182.483 73.6273 181.647 72.5634 181.457 70.4037C181.237 67.9037 181.872 65.7605 183.294 64.2058C184.787 62.5742 187.054 61.7117 189.849 61.7117C192.386 61.7599 194.818 62.7354 196.686 64.4544C198.554 66.1734 199.73 68.5171 199.991 71.0437C200.122 72.2112 200.003 73.3933 199.642 74.5109C199.28 75.6286 198.684 76.656 197.893 77.5243C197.102 78.3926 196.136 79.0818 195.057 79.5457C193.979 80.0097 192.814 80.2376 191.641 80.2143C190.193 80.2927 188.747 80.0302 187.419 79.4481C187.193 79.3543 186.94 79.3538 186.714 79.4468C186.487 79.5397 186.307 79.7186 186.213 79.9442C186.118 80.1698 186.116 80.4237 186.208 80.6505C186.3 80.8772 186.478 81.0582 186.703 81.154C188.258 81.8314 189.947 82.1429 191.641 82.0646Z" fill="#3F3D56"/>
<path d="M201.399 214.3C201.582 214.3 201.761 214.246 201.913 214.144C202.065 214.043 202.183 213.898 202.253 213.729C202.323 213.56 202.341 213.374 202.306 213.195C202.27 213.015 202.182 212.85 202.053 212.721L196.045 206.708C195.871 206.536 195.637 206.44 195.393 206.441C195.149 206.442 194.915 206.54 194.743 206.712C194.57 206.885 194.473 207.119 194.472 207.363C194.471 207.607 194.567 207.842 194.738 208.016L200.746 214.029C200.831 214.115 200.933 214.183 201.045 214.23C201.158 214.276 201.278 214.3 201.399 214.3ZM186.149 211.987C186.332 211.987 186.511 211.933 186.663 211.831C186.815 211.73 186.933 211.585 187.003 211.416C187.073 211.247 187.091 211.061 187.056 210.882C187.02 210.702 186.932 210.537 186.803 210.408L181.72 205.32C181.546 205.148 181.312 205.053 181.068 205.054C180.824 205.055 180.59 205.152 180.417 205.325C180.245 205.497 180.148 205.731 180.147 205.975C180.146 206.22 180.241 206.454 180.413 206.628L185.496 211.716C185.582 211.802 185.683 211.871 185.796 211.917C185.908 211.964 186.028 211.988 186.149 211.987ZM188.922 211.987C189.043 211.988 189.164 211.964 189.276 211.917C189.388 211.871 189.49 211.802 189.576 211.716L193.273 208.016C193.359 207.93 193.428 207.828 193.476 207.716C193.523 207.603 193.547 207.482 193.548 207.36C193.548 207.238 193.525 207.117 193.478 207.005C193.432 206.892 193.363 206.789 193.277 206.703C193.191 206.617 193.088 206.548 192.976 206.502C192.863 206.455 192.742 206.432 192.62 206.432C192.498 206.432 192.378 206.457 192.265 206.504C192.153 206.552 192.051 206.621 191.965 206.708L188.269 210.408C188.139 210.537 188.051 210.702 188.016 210.882C187.98 211.061 187.998 211.247 188.068 211.416C188.138 211.585 188.257 211.73 188.409 211.831C188.561 211.933 188.739 211.987 188.922 211.987Z" fill="#3F3D56"/>
<path d="M179.68 206.899C180.137 206.899 180.584 206.763 180.963 206.509C181.343 206.255 181.64 205.894 181.814 205.471C181.989 205.049 182.035 204.584 181.946 204.135C181.857 203.686 181.637 203.274 181.314 202.951C180.99 202.627 180.579 202.407 180.131 202.318C179.682 202.229 179.218 202.274 178.796 202.45C178.373 202.625 178.013 202.921 177.759 203.301C177.505 203.682 177.369 204.129 177.369 204.586C177.37 205.199 177.614 205.787 178.047 206.221C178.48 206.655 179.067 206.898 179.68 206.899ZM179.68 204.124C179.771 204.124 179.861 204.151 179.937 204.202C180.013 204.253 180.072 204.325 180.107 204.409C180.142 204.494 180.151 204.587 180.133 204.677C180.115 204.766 180.071 204.849 180.007 204.913C179.942 204.978 179.86 205.022 179.77 205.04C179.68 205.058 179.587 205.049 179.503 205.014C179.419 204.979 179.346 204.919 179.296 204.843C179.245 204.767 179.218 204.678 179.218 204.586C179.218 204.464 179.267 204.346 179.353 204.259C179.44 204.173 179.557 204.124 179.68 204.124Z" fill="#3F3D56"/>
<path d="M187.536 214.763C187.993 214.763 188.439 214.627 188.819 214.373C189.199 214.119 189.496 213.758 189.67 213.335C189.845 212.912 189.891 212.447 189.802 211.999C189.713 211.55 189.493 211.138 189.17 210.814C188.846 210.491 188.435 210.271 187.987 210.182C187.538 210.092 187.074 210.138 186.652 210.313C186.229 210.488 185.868 210.785 185.615 211.165C185.361 211.545 185.225 211.992 185.225 212.45C185.226 213.063 185.47 213.651 185.903 214.085C186.336 214.518 186.923 214.762 187.536 214.763ZM187.536 211.987C187.627 211.987 187.717 212.014 187.793 212.065C187.868 212.116 187.928 212.188 187.963 212.273C187.998 212.357 188.007 212.45 187.989 212.54C187.971 212.63 187.927 212.712 187.863 212.777C187.798 212.842 187.716 212.886 187.626 212.904C187.536 212.921 187.443 212.912 187.359 212.877C187.274 212.842 187.202 212.783 187.152 212.707C187.101 212.631 187.074 212.541 187.074 212.45C187.074 212.327 187.123 212.21 187.209 212.123C187.296 212.036 187.413 211.987 187.536 211.987Z" fill="#3F3D56"/>
<path d="M194.005 208.287C194.462 208.287 194.909 208.151 195.289 207.897C195.669 207.643 195.965 207.282 196.14 206.859C196.315 206.436 196.361 205.971 196.271 205.523C196.182 205.074 195.962 204.662 195.639 204.339C195.316 204.015 194.904 203.795 194.456 203.706C194.008 203.616 193.543 203.662 193.121 203.837C192.699 204.012 192.338 204.309 192.084 204.689C191.83 205.069 191.695 205.517 191.695 205.974C191.695 206.587 191.939 207.175 192.372 207.609C192.805 208.042 193.393 208.286 194.005 208.287ZM194.005 205.511C194.097 205.511 194.186 205.539 194.262 205.589C194.338 205.64 194.397 205.712 194.432 205.797C194.467 205.882 194.476 205.975 194.459 206.064C194.441 206.154 194.397 206.236 194.332 206.301C194.267 206.366 194.185 206.41 194.095 206.428C194.006 206.446 193.913 206.436 193.828 206.401C193.744 206.366 193.672 206.307 193.621 206.231C193.57 206.155 193.543 206.065 193.543 205.974C193.543 205.851 193.592 205.734 193.679 205.647C193.765 205.56 193.883 205.512 194.005 205.511Z" fill="#3F3D56"/>
<path d="M202.785 217.076C203.242 217.076 203.689 216.94 204.069 216.686C204.449 216.432 204.745 216.07 204.92 215.648C205.095 215.225 205.141 214.76 205.052 214.312C204.962 213.863 204.742 213.451 204.419 213.127C204.096 212.804 203.684 212.584 203.236 212.494C202.788 212.405 202.323 212.451 201.901 212.626C201.479 212.801 201.118 213.097 200.864 213.478C200.61 213.858 200.475 214.305 200.475 214.763C200.476 215.376 200.719 215.964 201.152 216.397C201.586 216.831 202.173 217.075 202.785 217.076ZM202.785 214.3C202.877 214.3 202.966 214.327 203.042 214.378C203.118 214.429 203.177 214.501 203.212 214.586C203.247 214.67 203.257 214.763 203.239 214.853C203.221 214.943 203.177 215.025 203.112 215.09C203.048 215.155 202.965 215.199 202.876 215.216C202.786 215.234 202.693 215.225 202.609 215.19C202.524 215.155 202.452 215.096 202.401 215.02C202.35 214.944 202.323 214.854 202.323 214.763C202.323 214.64 202.372 214.523 202.459 214.436C202.545 214.349 202.663 214.3 202.785 214.3Z" fill="#3F3D56"/>
<path d="M115.073 288.418H134.482C135.339 288.417 136.162 288.075 136.768 287.468C137.374 286.861 137.716 286.038 137.717 285.18V271.303C137.716 270.445 137.374 269.622 136.768 269.015C136.162 268.408 135.339 268.066 134.482 268.065H115.073C114.215 268.066 113.393 268.408 112.787 269.015C112.18 269.622 111.839 270.445 111.838 271.303V285.18C111.839 286.038 112.18 286.861 112.787 287.468C113.393 288.075 114.215 288.417 115.073 288.418ZM134.482 269.915C134.849 269.916 135.202 270.062 135.462 270.322C135.722 270.582 135.868 270.935 135.868 271.303V285.18C135.868 285.548 135.722 285.901 135.462 286.161C135.202 286.421 134.849 286.567 134.482 286.568H115.073C114.705 286.567 114.353 286.421 114.093 286.161C113.833 285.901 113.687 285.548 113.687 285.18V271.303C113.687 270.935 113.833 270.582 114.093 270.322C114.353 270.062 114.705 269.916 115.073 269.915L134.482 269.915Z" fill="#3F3D56"/>
<path d="M124.777 280.092C124.983 280.092 125.183 280.023 125.345 279.897L133.663 273.421C133.759 273.346 133.839 273.254 133.899 273.148C133.959 273.042 133.997 272.926 134.013 272.805C134.028 272.685 134.019 272.563 133.987 272.445C133.954 272.328 133.899 272.219 133.825 272.123C133.75 272.027 133.658 271.947 133.552 271.887C133.447 271.826 133.33 271.788 133.21 271.773C133.09 271.758 132.967 271.767 132.85 271.799C132.733 271.831 132.624 271.886 132.528 271.96L124.777 277.995L117.027 271.96C116.931 271.886 116.821 271.831 116.704 271.799C116.587 271.767 116.465 271.758 116.345 271.773C116.224 271.788 116.108 271.826 116.002 271.887C115.897 271.947 115.804 272.027 115.73 272.123C115.655 272.219 115.6 272.328 115.568 272.445C115.536 272.563 115.527 272.685 115.542 272.805C115.557 272.926 115.596 273.042 115.656 273.148C115.716 273.254 115.796 273.346 115.892 273.421L124.21 279.897C124.372 280.023 124.572 280.092 124.777 280.092Z" fill="#3F3D56"/>
<path d="M20.5323 301.225L127.444 301.268C127.58 301.268 127.71 301.214 127.806 301.118C127.901 301.022 127.955 300.892 127.955 300.756C127.955 300.62 127.901 300.49 127.806 300.394C127.71 300.298 127.58 300.244 127.444 300.244L20.5323 300.202C20.3967 300.202 20.2667 300.256 20.1708 300.352C20.075 300.448 20.0211 300.578 20.0211 300.714C20.0211 300.849 20.075 300.979 20.1708 301.075C20.2667 301.171 20.3967 301.225 20.5323 301.225Z" fill="#CCCCCC"/>
<path d="M21.9552 307.877C18.0026 307.877 14.7985 304.67 14.7985 300.714C14.7985 296.757 18.0026 293.55 21.9552 293.55C25.9077 293.55 29.1119 296.757 29.1119 300.714C29.1119 304.67 25.9077 307.877 21.9552 307.877Z" fill="#77B2D3"/>
<path d="M23.0882 164.091L131.022 164.134C131.158 164.134 131.288 164.08 131.384 163.984C131.48 163.888 131.534 163.758 131.534 163.622C131.534 163.486 131.48 163.356 131.384 163.26C131.288 163.164 131.158 163.11 131.022 163.11L23.0882 163.068C22.9527 163.068 22.8227 163.122 22.7268 163.218C22.6309 163.314 22.5771 163.444 22.5771 163.58C22.5771 163.715 22.6309 163.846 22.7268 163.941C22.8227 164.037 22.9527 164.091 23.0882 164.091Z" fill="#CCCCCC"/>
<path d="M21.9552 171.255C18.0026 171.255 14.7985 168.048 14.7985 164.091C14.7985 160.135 18.0026 156.928 21.9552 156.928C25.9077 156.928 29.1119 160.135 29.1119 164.091C29.1119 168.048 25.9077 171.255 21.9552 171.255Z" fill="#77B2D3"/>
<path d="M299.423 93.9893L191.489 94.0317C191.353 94.0317 191.223 93.9778 191.127 93.8818C191.031 93.7858 190.977 93.6557 190.977 93.52C190.977 93.3843 191.031 93.2541 191.127 93.1582C191.223 93.0622 191.353 93.0083 191.489 93.0083L299.423 92.9659C299.558 92.9659 299.688 93.0198 299.784 93.1157C299.88 93.2117 299.934 93.3419 299.934 93.4776C299.934 93.6133 299.88 93.7434 299.784 93.8394C299.688 93.9354 299.558 93.9893 299.423 93.9893Z" fill="#CCCCCC"/>
<path d="M300.556 101.153C296.603 101.153 293.399 97.9457 293.399 93.9893C293.399 90.0328 296.603 86.8255 300.556 86.8255C304.508 86.8255 307.713 90.0328 307.713 93.9893C307.713 97.9457 304.508 101.153 300.556 101.153Z" fill="#77B2D3"/>
<path d="M299.423 232.658L191.489 232.701C191.353 232.701 191.223 232.647 191.127 232.551C191.031 232.455 190.977 232.325 190.977 232.189C190.977 232.053 191.031 231.923 191.127 231.827C191.223 231.731 191.353 231.677 191.489 231.677L299.423 231.635C299.558 231.635 299.688 231.689 299.784 231.785C299.88 231.881 299.934 232.011 299.934 232.147C299.934 232.282 299.88 232.413 299.784 232.508C299.688 232.604 299.558 232.658 299.423 232.658Z" fill="#CCCCCC"/>
<path d="M300.556 239.822C296.603 239.822 293.399 236.615 293.399 232.658C293.399 228.702 296.603 225.495 300.556 225.495C304.508 225.495 307.713 228.702 307.713 232.658C307.713 236.615 304.508 239.822 300.556 239.822Z" fill="#77B2D3"/>
<path d="M124.777 301.268C129.327 301.268 133.775 299.917 137.558 297.387C141.341 294.857 144.289 291.261 146.03 287.053C147.771 282.846 148.227 278.216 147.339 273.749C146.452 269.283 144.261 265.18 141.044 261.96C137.826 258.739 133.728 256.546 129.265 255.658C124.803 254.769 120.178 255.225 115.974 256.968C111.771 258.711 108.178 261.662 105.651 265.449C103.123 269.235 101.774 273.687 101.774 278.241C101.781 284.346 104.206 290.199 108.519 294.516C112.832 298.833 118.679 301.261 124.777 301.268ZM124.777 256.239C129.125 256.239 133.375 257.529 136.99 259.947C140.604 262.365 143.422 265.801 145.086 269.821C146.749 273.842 147.185 278.266 146.336 282.534C145.488 286.802 143.395 290.723 140.321 293.8C137.246 296.877 133.33 298.973 129.066 299.822C124.802 300.671 120.382 300.235 116.366 298.569C112.349 296.904 108.916 294.084 106.501 290.466C104.085 286.847 102.796 282.593 102.796 278.241C102.803 272.408 105.121 266.815 109.242 262.69C113.362 258.566 118.95 256.245 124.777 256.239Z" fill="#CCCCCC"/>
<path d="M191.233 232.701C195.782 232.701 200.23 231.35 204.013 228.82C207.796 226.29 210.744 222.694 212.485 218.486C214.226 214.279 214.682 209.649 213.794 205.182C212.907 200.716 210.716 196.613 207.499 193.393C204.282 190.172 200.183 187.979 195.72 187.091C191.258 186.202 186.633 186.658 182.43 188.401C178.226 190.144 174.633 193.095 172.106 196.882C169.578 200.668 168.229 205.12 168.229 209.675C168.236 215.779 170.662 221.632 174.974 225.949C179.287 230.266 185.134 232.694 191.233 232.701ZM191.233 187.672C195.58 187.672 199.83 188.962 203.445 191.38C207.06 193.798 209.877 197.234 211.541 201.254C213.204 205.275 213.64 209.699 212.792 213.967C211.943 218.235 209.85 222.156 206.776 225.233C203.702 228.31 199.785 230.406 195.521 231.255C191.257 232.104 186.837 231.668 182.821 230.002C178.804 228.337 175.371 225.517 172.956 221.899C170.54 218.28 169.251 214.026 169.251 209.675C169.258 203.841 171.576 198.248 175.697 194.123C179.818 189.999 185.405 187.678 191.233 187.672Z" fill="#CCCCCC"/>
<path d="M129.378 164.134C133.928 164.134 138.375 162.783 142.158 160.253C145.941 157.723 148.89 154.127 150.631 149.919C152.372 145.712 152.827 141.082 151.94 136.615C151.052 132.149 148.861 128.046 145.644 124.826C142.427 121.605 138.328 119.412 133.866 118.524C129.404 117.635 124.778 118.091 120.575 119.834C116.372 121.577 112.779 124.528 110.251 128.315C107.724 132.101 106.374 136.553 106.374 141.108C106.381 147.212 108.807 153.065 113.12 157.382C117.432 161.699 123.279 164.127 129.378 164.134ZM129.378 119.105C133.726 119.105 137.976 120.395 141.59 122.813C145.205 125.231 148.023 128.667 149.686 132.687C151.35 136.708 151.785 141.132 150.937 145.4C150.089 149.668 147.995 153.589 144.921 156.666C141.847 159.743 137.93 161.839 133.666 162.688C129.403 163.537 124.983 163.101 120.966 161.435C116.95 159.77 113.517 156.95 111.101 153.332C108.686 149.713 107.397 145.459 107.397 141.108C107.403 135.274 109.721 129.681 113.842 125.556C117.963 121.432 123.55 119.111 129.378 119.105Z" fill="#CCCCCC"/>
<path d="M190.721 93.9893C195.271 93.9893 199.719 92.6388 203.502 90.1087C207.285 87.5785 210.233 83.9823 211.974 79.7748C213.715 75.5673 214.171 70.9375 213.283 66.4708C212.396 62.0042 210.205 57.9013 206.988 54.681C203.77 51.4608 199.672 49.2677 195.209 48.3792C190.747 47.4908 186.122 47.9468 181.918 49.6896C177.715 51.4324 174.122 54.3837 171.595 58.1703C169.067 61.957 167.718 66.4089 167.718 70.963C167.725 77.0678 170.151 82.9206 174.463 87.2374C178.776 91.5542 184.623 93.9823 190.721 93.9893ZM190.721 48.9602C195.069 48.9602 199.319 50.2506 202.934 52.6683C206.548 55.086 209.366 58.5224 211.03 62.5429C212.693 66.5634 213.129 70.9874 212.28 75.2556C211.432 79.5237 209.339 83.4442 206.265 86.5214C203.19 89.5985 199.274 91.6941 195.01 92.5431C190.746 93.3921 186.326 92.9563 182.31 91.291C178.293 89.6257 174.86 86.8055 172.445 83.1872C170.029 79.5688 168.74 75.3148 168.74 70.963C168.747 65.1295 171.065 59.5369 175.186 55.4119C179.306 51.287 184.894 48.9668 190.721 48.9602Z" fill="#CCCCCC"/>
<path d="M335.086 250.003C335.715 249.523 336.236 248.916 336.615 248.221C336.994 247.526 337.222 246.76 337.286 245.971C337.3 245.787 337.304 245.602 337.299 245.418L361.104 229.37C361.883 228.839 362.47 228.071 362.777 227.179C363.085 226.288 363.096 225.321 362.81 224.422L351.432 196.127C350.942 194.909 349.991 193.935 348.785 193.418C347.579 192.901 346.218 192.883 345 193.369C343.781 193.854 342.804 194.803 342.283 196.008C341.762 197.213 341.738 198.575 342.219 199.797L351.405 223.176L332.868 240.029C332.624 239.973 332.375 239.935 332.125 239.914C330.694 239.8 329.273 240.239 328.154 241.14C327.035 242.041 326.303 243.337 326.108 244.761C325.913 246.185 326.27 247.63 327.105 248.8C327.94 249.969 329.191 250.774 330.6 251.05C330.962 251.12 331.329 251.155 331.698 251.155C332.923 251.156 334.115 250.751 335.086 250.003Z" fill="#A0616A"/>
<path d="M361.094 212.788C361.234 212.462 361.301 212.11 361.292 211.756C361.283 211.402 361.198 211.054 361.043 210.736L355.611 199.624C355.063 197.897 353.853 196.458 352.247 195.622C350.641 194.787 348.769 194.623 347.042 195.167C345.315 195.71 343.874 196.918 343.034 198.523C342.195 200.129 342.026 202.002 342.565 203.732L344.548 215.983C344.604 216.333 344.735 216.666 344.932 216.96C345.129 217.255 345.387 217.503 345.689 217.689C345.99 217.874 346.328 217.992 346.679 218.035C347.03 218.078 347.387 218.045 347.724 217.938L359.576 214.168C359.914 214.061 360.224 213.882 360.486 213.644C360.748 213.406 360.955 213.114 361.094 212.788Z" fill="#77B2D3"/>
<path d="M323.633 349.973H317.366L314.384 325.776L323.634 325.777L323.633 349.973Z" fill="#A0616A"/>
<path d="M325.232 347.925L312.889 347.925H312.889C311.856 347.925 310.833 348.128 309.879 348.524C308.925 348.919 308.058 349.499 307.327 350.23C306.597 350.962 306.017 351.83 305.622 352.785C305.227 353.74 305.023 354.764 305.023 355.798V356.054L325.231 356.054L325.232 347.925Z" fill="#2F2E41"/>
<path d="M384.916 345.529L378.846 347.09L369.941 324.397L378.9 322.093L384.916 345.529Z" fill="#A0616A"/>
<path d="M385.955 343.146L374.002 346.221L374.001 346.221C373.001 346.479 372.061 346.931 371.235 347.552C370.409 348.173 369.713 348.95 369.188 349.841C368.662 350.731 368.317 351.716 368.172 352.739C368.026 353.763 368.084 354.805 368.341 355.806L368.405 356.054L387.977 351.02L385.955 343.146Z" fill="#2F2E41"/>
<path d="M340.959 183.975C334.025 183.975 328.404 178.348 328.404 171.407C328.404 164.466 334.025 158.84 340.959 158.84C347.893 158.84 353.514 164.466 353.514 171.407C353.514 178.348 347.893 183.975 340.959 183.975Z" fill="#A0616A"/>
<path d="M347.309 223.682C350.296 220.605 352.833 217.119 354.842 213.329C355.911 211.251 356.533 208.971 356.669 206.638C356.804 204.305 356.45 201.969 355.63 199.781C354.791 197.544 353.494 195.507 351.822 193.803C350.15 192.098 348.14 190.762 345.922 189.882C342.03 188.301 337.689 188.236 333.752 189.699C329.815 191.162 326.568 194.047 324.65 197.786C321.508 203.94 320.277 209.957 320.99 215.671C322.354 226.593 323.153 232.239 323.363 232.45L323.434 232.52L346.79 233.559L347.309 223.682Z" fill="#77B2D3"/>
<path d="M345.922 230.536L325.021 229.495C324.493 229.469 323.976 229.648 323.577 229.995C323.178 230.342 322.929 230.83 322.882 231.357L313.268 339.239C313.242 339.525 313.277 339.814 313.371 340.086C313.464 340.358 313.614 340.608 313.81 340.818C314.007 341.028 314.245 341.195 314.51 341.307C314.775 341.418 315.06 341.473 315.348 341.467L323.514 341.293C323.963 341.283 324.396 341.126 324.747 340.845C325.098 340.565 325.346 340.176 325.455 339.74L341.054 276.821C341.156 276.409 341.384 276.039 341.705 275.762C342.026 275.486 342.425 275.316 342.847 275.276C343.269 275.236 343.692 275.328 344.059 275.54C344.427 275.752 344.719 276.072 344.896 276.458L374.458 340.726C374.659 341.162 375.007 341.514 375.441 341.72C375.875 341.925 376.367 341.972 376.832 341.85L385.05 339.704C385.558 339.572 385.997 339.249 386.273 338.802C386.55 338.354 386.643 337.818 386.535 337.303C383.831 324.527 367.635 251.361 347.244 231.11C346.889 230.762 346.418 230.558 345.922 230.536Z" fill="#2F2E41"/>
<path d="M306.342 242.649C307.097 242.416 307.796 242.026 308.391 241.504C308.986 240.983 309.465 240.342 309.796 239.623C309.873 239.456 309.94 239.284 309.999 239.11L337.875 232.272C338.789 232.043 339.605 231.525 340.201 230.794C340.797 230.063 341.141 229.159 341.182 228.217L340.259 197.731C340.22 196.419 339.662 195.176 338.709 194.274C337.756 193.372 336.484 192.885 335.173 192.92C333.862 192.954 332.618 193.507 331.714 194.458C330.809 195.408 330.318 196.679 330.347 197.991L330.907 223.107L307.699 232.521C307.488 232.385 307.269 232.263 307.042 232.156H307.041C306.212 231.772 305.303 231.595 304.39 231.641C303.478 231.687 302.59 231.955 301.804 232.421C301.019 232.888 300.358 233.538 299.879 234.317C299.401 235.096 299.119 235.98 299.058 236.893C298.997 237.805 299.159 238.719 299.53 239.554C299.901 240.39 300.469 241.123 301.186 241.69C301.903 242.256 302.747 242.64 303.646 242.807C304.544 242.974 305.469 242.92 306.342 242.649V242.649Z" fill="#A0616A"/>
<path d="M343.232 212.922C343.473 212.662 343.655 212.353 343.765 212.017C343.876 211.68 343.913 211.324 343.873 210.972L342.491 198.679C342.555 196.868 341.9 195.105 340.667 193.778C339.435 192.45 337.727 191.666 335.918 191.596C334.109 191.527 332.347 192.179 331.017 193.408C329.687 194.638 328.899 196.345 328.825 198.156L326.576 210.361C326.512 210.709 326.523 211.067 326.61 211.411C326.697 211.754 326.856 212.075 327.078 212.351C327.299 212.627 327.578 212.852 327.894 213.011C328.21 213.17 328.557 213.258 328.911 213.271L341.339 213.71C341.693 213.723 342.045 213.659 342.372 213.523C342.699 213.387 342.992 213.182 343.232 212.922Z" fill="#77B2D3"/>
<path d="M358.95 188L357.638 183.756L356.741 188.519L349.373 188.324L349.407 183.627L346.606 188.262L339.929 186.785C341.356 184.882 342.799 182.95 343.711 180.708C344.624 178.465 344.956 175.835 344.103 173.565C341.996 167.953 334.007 169.523 329.637 169.476C328.362 169.462 326.923 169.37 326.088 168.327C325.459 167.541 325.356 166.417 325.388 165.378C325.552 160.029 328.761 154.925 333.297 152.798C335.517 151.775 337.992 151.439 340.405 151.834C341.663 152.033 342.885 152.419 344.03 152.977C345.051 153.477 346.123 154.666 347.223 154.633C348.146 154.606 349.369 153.643 350.374 153.479C351.586 153.291 352.821 153.335 354.016 153.606C356.418 154.142 358.582 155.438 360.189 157.304C363.604 161.275 364.619 167.128 364.024 172.517C363.429 177.905 361.415 182.972 359.423 187.952" fill="#2F2E41"/>
<path d="M0.511169 357H410.489C410.624 357 410.754 356.946 410.85 356.85C410.946 356.754 411 356.624 411 356.488C411 356.353 410.946 356.222 410.85 356.126C410.754 356.03 410.624 355.977 410.489 355.977H0.511169C0.37561 355.977 0.245575 356.03 0.149719 356.126C0.0538635 356.222 -3.05176e-05 356.353 -3.05176e-05 356.488C-3.05176e-05 356.624 0.0538635 356.754 0.149719 356.85C0.245575 356.946 0.37561 357 0.511169 357Z" fill="#E6E6E6"/>
<path d="M7.42757 350.658C5.8673 349.392 4.73029 347.679 4.16846 345.748C3.75258 343.794 4.58435 341.5 6.44306 340.744C8.53092 339.937 10.763 341.39 12.452 342.851C14.141 344.312 16.0846 345.986 18.2997 345.671C17.1651 344.636 16.3177 343.324 15.8402 341.864C15.3628 340.403 15.2715 338.844 15.5753 337.337C15.6668 336.711 15.9314 336.122 16.3392 335.638C17.4934 334.398 19.5983 334.933 20.9902 335.91C25.4036 339.019 26.6342 345.017 26.6512 350.421C27.101 348.467 26.7276 346.436 26.736 344.474C26.7445 342.511 27.2962 340.226 28.9767 339.189C30.0187 338.629 31.189 338.351 32.3716 338.382C34.3575 338.314 36.5643 338.51 37.9222 339.962C39.6197 341.764 39.1699 344.796 37.7016 346.759C36.2333 348.721 34.0096 349.987 31.9642 351.363C30.3166 352.341 28.9121 353.68 27.8564 355.28C27.7312 355.501 27.6288 355.735 27.5508 355.977H15.117C12.3254 354.56 9.73863 352.771 7.42757 350.658Z" fill="#F2F2F2"/>
<path d="M136.793 154.635C137.024 154.634 137.251 154.575 137.454 154.464C137.657 154.353 137.828 154.193 137.954 153.999C138.079 153.804 138.154 153.582 138.172 153.351C138.19 153.12 138.15 152.889 138.056 152.678L136.456 149.105C138.66 147.146 140.064 144.441 140.398 141.509C140.733 138.577 139.974 135.625 138.268 133.219C136.562 130.812 134.028 129.121 131.153 128.469C128.278 127.817 125.264 128.251 122.688 129.687C120.113 131.123 118.157 133.46 117.197 136.25C116.237 139.039 116.34 142.086 117.485 144.805C118.631 147.524 120.739 149.724 123.405 150.983C126.071 152.242 129.108 152.471 131.933 151.627L136.015 154.394C136.244 154.55 136.515 154.634 136.793 154.635ZM128.539 129.937C130.666 129.936 132.74 130.597 134.474 131.828C136.209 133.06 137.517 134.801 138.219 136.811C138.92 138.82 138.98 140.998 138.389 143.043C137.799 145.088 136.587 146.898 134.923 148.223L134.419 148.625L136.14 152.469L132.191 149.792L131.801 149.924C130.392 150.397 128.897 150.559 127.42 150.397C125.943 150.235 124.518 149.753 123.245 148.985C121.972 148.217 120.882 147.182 120.049 145.95C119.215 144.718 118.66 143.32 118.42 141.851C118.181 140.383 118.263 138.881 118.661 137.447C119.059 136.014 119.764 134.685 120.727 133.552C121.689 132.418 122.887 131.508 124.236 130.884C125.585 130.26 127.053 129.937 128.539 129.937Z" fill="#3F3D56"/>
<path d="M128.539 141.31C127.621 141.31 126.876 140.565 126.876 139.645C126.876 138.726 127.621 137.981 128.539 137.981C129.457 137.981 130.202 138.726 130.202 139.645C130.202 140.565 129.457 141.31 128.539 141.31Z" fill="#3F3D56"/>
<path d="M133.25 141.31C132.332 141.31 131.587 140.565 131.587 139.645C131.587 138.726 132.332 137.981 133.25 137.981C134.168 137.981 134.913 138.726 134.913 139.645C134.913 140.565 134.168 141.31 133.25 141.31Z" fill="#3F3D56"/>
<path d="M123.828 141.31C122.91 141.31 122.166 140.565 122.166 139.645C122.166 138.726 122.91 137.981 123.828 137.981C124.747 137.981 125.491 138.726 125.491 139.645C125.491 140.565 124.747 141.31 123.828 141.31Z" fill="#3F3D56"/>
</g>
<defs>
<clipPath id="clip0_3_37">
<rect width="411" height="357" fill="white" transform="matrix(-1 0 0 1 411 0)"/>
</clipPath>
</defs>
</svg>
