<svg width="95" height="47" viewBox="0 0 95 47" fill="none" xmlns="http://www.w3.org/2000/svg">
<path d="M38.645 39.6217C31.445 43.2431 24.545 46.1551 13.9325 46.5657C0.0949969 46.2671 -2.0425 37.1204 4.4825 27.5631C10.67 17.9311 20.495 9.19507 36.095 3.7444C40.6325 2.13907 47.27 0.347072 53.6825 0.235072C62.9075 0.160405 71.87 2.99774 71.27 11.8084C70.9325 18.5657 61.145 28.0484 56.0075 34.8804C53.795 37.8671 53.42 39.8084 57.2075 39.6217C70.895 38.7257 83.27 34.0217 94.7825 29.1311C86.9825 34.3951 46.745 54.2191 46.595 40.7044C46.6325 38.9871 47.42 37.1577 48.7325 35.2164C50.0075 33.2751 51.77 31.2591 53.6075 29.2057C56.345 26.1071 63.17 18.6404 65.4575 14.1604C69.32 5.79773 60.695 5.38707 53.2325 2.77373L50.045 4.56573L51.995 6.39507C41.12 8.18707 35.7575 9.97907 22.37 14.5711L23.9075 18.4537L19.37 22.9337C19.2575 22.8217 18.5825 22.7844 17.1575 21.8884V29.3551C11.195 31.9684 6.02 36.4857 10.0325 40.4057C10.445 40.7417 11.045 41.0777 11.42 41.1151C18.77 45.2217 38.6825 39.6217 38.645 39.6217Z" fill="#FF6600"/>
</svg>
